<svg xmlns="http://www.w3.org/2000/svg" data-name="Layer 3" viewBox="0 0 36 35" x="0px" y="0px">
  <title>check</title>
  <g fill="#00a3ff">
    <path d="M29,7H23V6a1,1,0,0,0-1-1H20.829a3,3,0,0,0-5.658,0H14a1,1,0,0,0-1,1V7H7A1,1,0,0,0,6,8V32a1,1,0,0,0,1,1H29a1,1,0,0,0,1-1V8A1,1,0,0,0,29,7ZM15,7h1a1,1,0,0,0,1-1,1,1,0,0,1,2,0,1,1,0,0,0,1,1h1V9H15ZM28,31H8V9h5v1a1,1,0,0,0,1,1h8a1,1,0,0,0,1-1V9h5Z"/>
    <path d="M15.293,15.079l-2.507,2.507-1.079-1.079a1,1,0,1,0-1.414,1.414l1.786,1.786a1,1,0,0,0,1.414,0l3.214-3.214a1,1,0,0,0-1.414-1.414Z"/>
    <path d="M19,17a1,1,0,0,0,0,2h6a1,1,0,0,0,0-2Z"/>
    <path d="M15.293,22.293,12.786,24.8l-1.079-1.078a1,1,0,0,0-1.414,1.414l1.786,1.785a1,1,0,0,0,1.414,0l3.214-3.214a1,1,0,0,0-1.414-1.414Z"/>
    <path d="M25,24.214H19a1,1,0,0,0,0,2h6a1,1,0,0,0,0-2Z"/>
  </g>
</svg>