<svg xmlns="http://www.w3.org/2000/svg" version="1.1" viewBox="-5.0 -10.0 110.0 115.0">
 <path fill="#00a3ff" d="m80.52 20.66c0-5.9609-4.8516-10.785-10.785-10.785h-1.9844v5.3555c0 4.0234-3.293 7.3164-7.3398 7.3164h-4.6523c-4.0469 0-7.3398-3.2969-7.3398-7.3164v-5.3555h-11.086v5.3555c0 4.0234-3.293 7.3164-7.3672 7.3164h-4.625c-4.0742 0-7.3672-3.2969-7.3672-7.3164v-5.3555h-1.9609c-5.9609 0-10.785 4.8281-10.785 10.785v7.8672h75.297v-7.8672z"/>
 <path fill="#00a3ff" d="m55.758 2.5h4.6367c1.3477 0 2.4453 1.0977 2.4453 2.4453v10.273c0 1.3477-1.0938 2.4414-2.4414 2.4414h-4.6406c-1.3477 0-2.4453-1.0938-2.4453-2.4453v-10.27c0-1.3477 1.0977-2.4453 2.4453-2.4453z"/>
 <path fill="#00a3ff" d="m25.328 2.5h4.6406c1.3477 0 2.4453 1.0938 2.4453 2.4453v10.273c0 1.3477-1.0938 2.4414-2.4414 2.4414h-4.6406c-1.3477 0-2.4453-1.0977-2.4453-2.4453v-10.27c0-1.3477 1.0977-2.4453 2.4453-2.4453z"/>
 <path fill="#00a3ff" d="m76.078 55.176c1.5273 0 2.9922 0.15234 4.4258 0.42578v-22.164h-75.289v32.668c0 5.9531 4.8242 10.809 10.777 10.809h36.547c0.94531-12.152 11.145-21.738 23.539-21.738zm-46.957 11.328c0 1.3438-1.0977 2.4102-2.4102 2.4102h-6.9609c-1.3438 0-2.4102-1.0703-2.4102-2.4102v-5.5586c0-1.3125 1.0703-2.4102 2.4102-2.4102h6.9609c1.3125 0 2.4102 1.0977 2.4102 2.4102zm0-17.129c0 1.3438-1.0977 2.4102-2.4102 2.4102h-6.9609c-1.3438 0-2.4102-1.0664-2.4102-2.4102v-5.5586c0-1.3438 1.0703-2.4102 2.4102-2.4102h6.9609c1.3125 0 2.4102 1.0703 2.4102 2.4102zm19.629 17.129c0 1.3438-1.0703 2.4102-2.4102 2.4102h-6.9609c-1.3125 0-2.4102-1.0703-2.4102-2.4102v-5.5586c0-1.3125 1.0977-2.4102 2.4102-2.4102h6.9609c1.3438 0 2.4102 1.0977 2.4102 2.4102zm0-17.129c0 1.3438-1.0703 2.4102-2.4102 2.4102h-6.9609c-1.3125 0-2.4102-1.0664-2.4102-2.4102v-5.5586c0-1.3438 1.0977-2.4102 2.4102-2.4102h6.9609c1.3438 0 2.4102 1.0703 2.4102 2.4102zm7.8789 0v-5.5586c0-1.3438 1.0703-2.4102 2.4102-2.4102h6.9609c1.3125 0 2.4102 1.0703 2.4102 2.4102v5.5586c0 1.3438-1.0977 2.4102-2.4102 2.4102h-6.9609c-1.3438 0-2.4102-1.0664-2.4102-2.4102z"/>
 <path fill="#00a3ff" d="m76.062 60.051c-10.324 0-18.723 8.4023-18.723 18.723 0 10.324 8.3984 18.723 18.723 18.723s18.723-8.4023 18.723-18.723c0-10.324-8.3984-18.723-18.723-18.723zm9.8281 15.789-10.734 10.73c-0.55469 0.55469-1.2812 0.83203-2.0078 0.83203-0.72656 0-1.4531-0.27734-2.0078-0.83203l-5.332-5.332c-1.1094-1.1055-1.1094-2.9062 0-4.0156 1.1055-1.1094 2.9062-1.1094 4.0156 0l3.3242 3.3242 8.7266-8.7266c1.1094-1.1094 2.9062-1.1094 4.0156 0 1.1094 1.1094 1.1094 2.9062 0 4.0156z"/>
</svg>