<svg version="1.2" xmlns="http://www.w3.org/2000/svg" viewBox="0 0 3000 750" width="400" height="100">
	<title>Gueststatus logo</title>
	<style>
		.s0 { fill: #2471ed } 
	</style>
	<path id="gueststatus" class="s0" aria-label="gueststatus"  d="m532.3 475.5h-36.5q0 26.6 13.1 47.3 13 20.2 36 31.5 23.4 11.2 53.5 11.2 26.1 0 49.5-12.1 23.4-12.2 38.3-36 14.8-24.3 14.8-59.9v-202.5h-36v202.5q0 26.1-10.3 42.8-9.9 16.2-25.2 23.8-15.3 7.7-31.1 7.7-20.2 0-35.1-7.7-14.8-8.1-22.9-20.7-8.1-13-8.1-27.9zm-40.5-117q0 33.3 13.9 57.6 14 24.3 37.4 37.3 23.4 13.1 51.3 13.1 26.1 0 45.4-13.1 19.4-13 30.2-37.3 11.2-24.3 11.2-57.6 0-33.8-11.2-57.6-10.8-24.3-30.2-37.4-19.3-13-45.4-13-27.9 0-51.3 13-23.4 13.1-37.4 37.4-13.9 23.9-13.9 57.6zm36.4 0q0-23.9 9.5-40.5 9.9-16.6 26.1-25.2 16.2-8.5 35.1-8.5 11.7 0 23.4 4.9 11.7 4.9 21.1 14.4 9.9 9.4 15.8 23.4 5.8 13.5 5.8 31.5 0 23.9-9.9 40.5-9.9 16.6-25.2 25.2-15.3 8.6-31 8.6-18.9 0-35.1-8.6-16.2-8.6-26.1-25.2-9.5-16.6-9.5-40.5zm274.1 22.5v-126h-36v130.5q0 36.9 19.3 58.9 19.4 22.1 51.8 22.1 20.6 0 36-9 15.3-9.4 25.6-27.9v32.4h36v-207h-36v126q0 15.3-6.7 27-6.3 11.7-18.5 18.4-11.7 6.4-27.4 6.4-21.6 0-32.9-13.5-11.2-13.5-11.2-38.3zm280.3 85.5q33.3 0 57.6-13.1 24.8-13.5 41-39.5l-29.3-18.5q-11.2 18.9-27.4 28.4-16.2 9-37.4 9-21.1 0-36-9-14.8-9-22.5-26.2-7.6-17-7.6-41.4 0.4-23.8 8-40 8.2-16.7 22.5-25.2 14.9-9 35.6-9 17.6 0 30.6 7.6 13.1 7.7 20.3 21.2 7.6 13.5 7.6 31.9 0 3.2-1.3 8.2-1.4 4.5-2.8 6.7l14.5-20.7h-148.5v30.6h176.8q0-0.9 0-4.1 0.4-3.5 0.4-6.7 0-32.8-11.7-56.7-11.7-23.9-33.7-36.5-21.6-13-52.2-13-30.6 0-54 13.5-23 13.5-36 37.8-12.6 24.3-12.6 56.7 0 31.9 12.1 56.3 12.6 24.3 34.7 38.2 22.5 13.5 51.3 13.5zm160.2-67.9l-28.3 17.5q5.8 12.2 17 23.8 11.8 11.7 28.4 19.4 16.6 7.2 37.4 7.2 31.9 0 51.2-18 19.8-18 19.8-45 0-18.4-9-30.1-8.5-11.8-23.3-19.8-14.9-8.6-32.9-15.8-10.8-4.5-20.7-9.4-9.9-5-16.2-11.3-6.3-6.3-6.3-14.4 0-10.3 8.1-15.3 8.1-4.9 19.3-4.9 16.2 0 28.9 7.6 13 7.7 21.6 19.4l28.7-18.5q-6.2-11.7-17.5-20.7-11.2-9-26.1-14.4-14.4-5.4-31.1-5.4-16.6 0-32.3 5.9-15.3 5.8-25.2 18-9.5 12.1-9.5 30.6 0 18 9 30.1 9.5 11.7 23 19.4 13.9 7.1 27.4 12.6 12.1 4.5 23 9.9 10.8 4.9 17.5 12.6 7.2 7.2 7.2 18 0 12.1-9 19.3-8.6 6.7-23.9 6.7-12.5 0-23.3-4.5-10.4-4.9-18.5-13-8.1-8.1-14.4-17.5zm244.8-143.6h-103.5v33.8h103.5zm-33.8-72h-36v278.9l36 0.1zm78.4 215.5l-28.4 17.6q5.9 12.1 17.1 23.8 11.7 11.7 28.3 19.4 16.7 7.2 37.4 7.2 31.9 0 51.3-18 19.8-18 19.8-45 0-18.5-9-30.2-8.5-11.7-23.4-19.8-14.8-8.5-32.8-15.7-10.8-4.6-20.8-9.5-9.9-4.9-16.2-11.2-6.3-6.4-6.3-14.4 0-10.4 8.1-15.3 8.2-5 19.4-5 16.2 0 28.8 7.7 13 7.6 21.6 19.3l28.8-18.4q-6.3-11.8-17.6-20.8-11.2-9-26.1-14.3-14.4-5.4-31-5.4-16.7 0-32.4 5.8-15.3 5.9-25.2 18-9.4 12.2-9.4 30.6 0 18 9 30.2 9.4 11.7 22.9 19.3 13.9 7.2 27.4 12.6 12.2 4.5 23 9.9 10.8 5 17.5 12.6 7.2 7.2 7.2 18 0 12.2-9 19.4-8.5 6.7-23.8 6.7-12.6 0-23.4-4.5-10.3-4.9-18.5-13-8-8.1-14.3-17.6zm244.8-143.5h-103.5v33.7h103.5zm-33.8-72h-36v279h36zm86 215.1q0-11.2 5.3-19.3 5.5-8.1 16.2-12.6 11.3-4.5 28.8-4.5 19 0 35.6 4.9 16.6 4.5 32.4 15.3v-21.1q-3.1-4.1-12.1-10.4-9-6.7-24.4-11.7-14.8-5.4-37.3-5.4-38.2 0-59.8 18.5-21.2 18-21.2 48.1 0 21.2 9.9 36 9.9 14.9 26.1 23 16.7 7.6 35.5 7.6 17.2 0 34.3-6.3 17.5-6.3 29.2-19.3 12.2-13.1 12.2-32.9l-7.2-27q0 16.2-8.2 28.8-7.6 12.2-21.1 18.9-13 6.8-29.7 6.8-13 0-23.4-4.1-9.9-4.5-15.8-13-5.3-8.6-5.3-20.3zm-23-121.9l17.5 26.5q5-3.6 13.5-8.5 8.6-5 20.8-8.6 12.5-3.6 27.9-3.6 9.4 0 18 1.8 8.5 1.8 14.8 5.9 6.8 4 10.3 11.2 3.7 6.8 3.7 17.6v143.5h36v-148.5q0-20.2-10.4-34.2-9.9-13.9-28.3-21.1-18-7.7-42.3-7.7-28.8 0-49.5 8.5-20.3 8.6-32 17.2zm295.2-21.2h-103.5v33.8h103.5zm-33.7-72h-36v279h36zm105.7 198v-126h-36v130.5q0 36.9 19.3 58.9 19.4 22.1 51.8 22.1 20.7 0 36-9 15.3-9.5 25.7-27.9v32.4h36v-207h-36v126q0 15.3-6.8 27-6.3 11.7-18.5 18.4-11.7 6.3-27.4 6.3-21.6 0-32.8-13.5-11.3-13.5-11.3-38.2zm208.8 17.5l-28.3 17.6q5.8 12.1 17 23.8 11.8 11.7 28.4 19.4 16.6 7.2 37.4 7.2 31.9 0 51.2-18 19.8-18 19.8-45 0-18.5-9-30.2-8.5-11.7-23.3-19.8-14.9-8.5-32.9-15.7-10.8-4.5-20.7-9.5-9.9-4.9-16.2-11.2-6.3-6.3-6.3-14.4 0-10.4 8.1-15.3 8.1-5 19.3-5 16.2 0 28.9 7.7 13 7.6 21.6 19.3l28.7-18.4q-6.2-11.7-17.5-20.7-11.2-9-26.1-14.4-14.4-5.4-31.1-5.4-16.6 0-32.3 5.8-15.3 5.9-25.2 18-9.5 12.2-9.5 30.6 0 18 9 30.2 9.5 11.7 23 19.3 13.9 7.2 27.4 12.6 12.1 4.5 23 9.9 10.8 5 17.5 12.6 7.2 7.2 7.2 18 0 12.2-9 19.4-8.6 6.7-23.9 6.7-12.5 0-23.3-4.5-10.4-4.9-18.5-13-8.1-8.1-14.4-17.6z"/>
</svg>