<svg xmlns="http://www.w3.org/2000/svg" xmlns:xlink="http://www.w3.org/1999/xlink" version="1.1" x="0px" y="0px" viewBox="0 0 100 100" xml:space="preserve">
<path fill="#00a3ff" d="M18.3,92.9l71.1-81.7c1.1-1.3,1-3.3-0.3-4.4c-1.3-1.1-3.3-1-4.4,0.3L67,27.5c-5.4-2.2-10.8-3.3-16.4-3.3  c-25.9,0-44,24.2-44.7,25.2C5,50.5,5.1,52,5.9,53.1c7,8.7,14.4,15.1,21.9,19.3L13.6,88.8c-1.1,1.3-1,3.3,0.3,4.4  c0.6,0.5,1.3,0.8,2,0.8C16.8,93.9,17.7,93.6,18.3,92.9z M42.2,55.9c-0.8-1.4-1.3-3-1.3-4.7c0-5,4.1-9.1,9.1-9.1  c1.3,0,2.5,0.3,3.6,0.7L42.2,55.9z M12.4,51.1c4.6-5.4,19.3-20.8,38.2-20.8c4.1,0,8.1,0.7,12,2.1L57.8,38c-2.3-1.4-4.9-2.1-7.8-2.1  c-8.4,0-15.3,6.9-15.3,15.3c0,3.6,1.3,6.9,3.3,9.5l-6,6.9C25.3,64.1,18.8,58.6,12.4,51.1z M94.1,49.2c0.9,1.1,0.9,2.7,0.1,3.8  c-0.8,1-18.8,25.2-44.7,25.2c-3.1,0-6.2-0.4-9.2-1.1l4.8-5.5c1.5,0.2,3,0.3,4.5,0.3C68.3,72,83,56.6,87.6,51.2  c-4.5-5.3-9.1-9.5-13.7-12.8l4.1-4.7C83.5,37.7,88.9,42.8,94.1,49.2z"/>
</svg>