<svg xmlns="http://www.w3.org/2000/svg" xmlns:xlink="http://www.w3.org/1999/xlink" version="1.1" viewBox="0 0 90 90">
  <path fill="#00a3ff" fill-rule="evenodd" clip-rule="evenodd" d="M45.02,17.096c-15.405-0.005-27.9,12.489-27.9,27.901  c0,7.402,2.937,14.495,8.172,19.73c5.233,5.234,12.328,8.172,19.728,8.172c15.406,0,27.901-12.49,27.901-27.902  c-0.016-4.312-1.026-8.567-2.958-12.421l-4.037,4.479c0.964,2.536,1.459,5.229,1.459,7.942c0.005,5.943-2.354,11.64-6.547,15.844  c-4.198,4.197-9.886,6.563-15.818,6.563c-5.932,0-11.624-2.36-15.817-6.563c-4.192-4.204-6.552-9.901-6.552-15.844  c0-5.942,2.36-11.641,6.552-15.844c4.199-4.202,9.885-6.563,15.817-6.563c4.469,0.005,8.834,1.349,12.537,3.86l3.932-3.933  C56.718,19.003,50.947,17.106,45.02,17.096z"/>
  <path fill="#00a3ff" d="M67.16,21.258L44.697,43.722l-4.651-4.563c-3.141-3.083-7.172,1.292-5.041,4.156l7.776,10.469  c1.035,1.014,2.879,0.943,3.843,0l25.192-27.928C74.687,22.68,69.885,18.539,67.16,21.258z"/>
  <path fill="#00a3ff" d="M44.682,25.585c-0.767,0.006-1.381,0.637-1.37,1.402v1.688c0,0.765,0.62,1.391,1.391,1.391c0.766,0,1.391-0.625,1.391-1.391  v-1.688C46.098,26.206,45.463,25.571,44.682,25.585z"/>
  <path fill="#00a3ff" d="M44.682,59.913c-0.771,0.005-1.387,0.641-1.37,1.407v1.688c0,0.771,0.62,1.396,1.391,1.396c0.766,0,1.391-0.625,1.391-1.396  V61.32C46.104,60.539,45.468,59.899,44.682,59.913z"/>
  <path fill="#00a3ff" d="M60.863,43.612c-1.766,0.167-1.635,2.781,0.141,2.77h1.678c0.802,0.058,1.479-0.584,1.479-1.385  c0-0.803-0.677-1.442-1.479-1.385h-1.678C60.957,43.606,60.91,43.606,60.863,43.612z"/>
  <path fill="#00a3ff" d="M26.587,43.612c-1.766,0.167-1.635,2.781,0.136,2.77h1.678c0.801,0.058,1.483-0.584,1.483-1.385  c0-0.803-0.682-1.442-1.483-1.385h-1.678C26.677,43.606,26.628,43.606,26.587,43.612z"/>
  <path fill="#00a3ff" d="M56.218,55.137c-1.255-0.009-1.88,1.516-0.979,2.385l1.193,1.193c0.536,0.579,1.447,0.599,2.005,0.042  c0.558-0.557,0.536-1.468-0.042-2.006l-1.182-1.191C56.952,55.29,56.593,55.137,56.218,55.137z"/>
  <path fill="#00a3ff" d="M31.833,30.861c-1.172,0.12-1.672,1.557-0.828,2.381l1.186,1.192c0.532,0.579,1.443,0.593,2,0.036  c0.558-0.558,0.543-1.462-0.036-2l-1.188-1.191C32.677,30.971,32.254,30.82,31.833,30.861z"/>
  <path fill="#00a3ff" d="M33.145,55.137c-0.359,0.011-0.703,0.161-0.954,0.423l-1.186,1.191c-0.579,0.538-0.595,1.449-0.038,2.006  c0.557,0.552,1.464,0.537,2-0.042l1.188-1.193C35.067,56.643,34.415,55.096,33.145,55.137z"/>
</svg>