<svg xmlns="http://www.w3.org/2000/svg" xmlns:xlink="http://www.w3.org/1999/xlink" version="1.1" x="0px" y="0px" viewBox="0 0 256 256" xml:space="preserve">
    <g fill="#00a3ff">
        <path d="M141.6,2.7c-37.7-0.6-72,21.1-87.5,55.4c-5.6,12.3-8.4,25.4-8.4,38.9c0,0.5,0,3.3,0,7.8c-0.7,3.2-3.4,6.3-6.4,9.2   c-1,1-2.7,2.6-4.5,4.3c-5.1,4.9-8.2,7.9-9.2,9.2c-1.2,1.6-2.8,3.7-3.6,6.4c-2.3,7.2,3.3,10.7,5.1,11.8c2.2,1.4,4.4,2.4,6,3.2   c1.8,0.8,3.7,1.7,5.4,2.4c0.2,0.1,0.4,0.2,0.7,0.3c1.7,11.4,6.9,45.6,6.9,45.8c0.7,6,2.7,10.6,6.1,13.7c5.9,5.4,13.9,5.2,20.3,5   c1,0,2.1-0.1,3.1-0.1l10.3,0c0.3,4.2,0.7,10.9,1.1,16.6l0.9,13.1c0.2,2.4,1.4,4.6,3.3,6c1.5,1.1,3.2,1.7,5,1.7   c0.5,0,1.1-0.1,1.6-0.2l104.6-20.8c5.7-1.1,9.8-6.1,9.8-11.9v-19c0-22.4,4.8-45,14.4-67.2c5.4-12.4,7.9-25.5,7.7-39.1   C233.4,44.1,192.7,3.5,141.6,2.7z M217.6,130.4c-10.1,23.4-15.2,47.3-15.2,71.1v19c0,1-0.7,1.9-1.7,2.1L98,243l-0.7-11.1   c-1.3-20.3-1.4-21.3-1.6-22.1l-0.9-3.8h-4.9l-13.9,0c-1.1,0-2.2,0-3.3,0.1c-5.1,0.1-10.4,0.3-13.3-2.4c-1.6-1.4-2.6-4-3-7.7   c-0.2-1-7.3-48.2-7.3-48.2l-0.2-1.4l-0.9-1.1l-1.1-1.1c-1.2-1-2.5-1.5-3.4-1.8l-0.7-0.3c-1.7-0.7-3.5-1.5-5.2-2.3   c-1.4-0.6-3.2-1.5-4.9-2.6c-0.4-0.2-0.6-0.4-0.8-0.5c0.4-1,1.2-2.1,1.8-2.9c0.7-0.9,5.5-5.5,8.4-8.3c1.8-1.8,3.5-3.4,4.5-4.4   c4-3.9,8.3-8.8,9.3-15.1l0.1-0.4l0-0.4c0-4.7,0-7.7,0-8.2c0-12.1,2.5-23.9,7.5-34.8c13.9-30.6,44.5-50.1,78.2-49.5   c45.6,0.7,82.1,37.1,83,82.7C224.7,107.5,222.4,119.3,217.6,130.4z"/>
        <path d="M191.5,93.4l-1.9-0.4c-1.1-0.2-2.2-0.4-3.4-0.6c-0.3-3.6-1.1-7.1-2.2-10.5c1.5-1,3-2,4.5-3c1.8-1.2,2.5-3.6,1.6-5.6   c-2.6-5.5-6-10.5-10.2-14.8c-1.5-1.6-4-1.8-5.8-0.6c-0.9,0.7-1.9,1.3-2.8,1.9c-0.6,0.4-1.1,0.8-1.7,1.1c-2.8-2.3-5.8-4.3-9-5.9   c0,0,0-0.1,0-0.1l0.2-0.9c0-0.1,0.1-0.2,0.1-0.3l0.2-1.2c0.2-0.9,0.3-1.7,0.5-2.7c0.4-2.2-0.8-4.3-2.9-5.1c-2.8-1-5.6-1.8-8.5-2.3   c-2.9-0.5-5.9-0.9-8.8-0.9c-2.1,0.1-4,1.4-4.5,3.5c0,0.1-0.1,0.3-0.1,0.4c-0.1,0.9-0.3,1.7-0.5,2.6l-0.2,1.2c0,0.1,0,0.2-0.1,0.3   l-0.2,0.9c0,0,0,0.1,0,0.1c-3.6,0.3-7.1,1-10.5,2.2c-0.4-0.5-0.7-1.1-1.1-1.6c-0.7-1-1.3-1.9-2-2.9c-1.2-1.8-3.6-2.5-5.6-1.6   c-5.5,2.6-10.5,6-14.9,10.1c-1.6,1.5-1.8,4-0.6,5.8c1,1.5,2.1,3,3.1,4.5c-2.3,2.8-4.3,5.8-5.9,9c-1.1-0.2-2.2-0.4-3.3-0.6L93.2,75   c-0.1,0-0.4-0.1-0.5-0.1c-2-0.3-4,0.9-4.7,2.9c-1,2.8-1.8,5.8-2.4,8.7c-0.6,2.9-0.9,6-0.9,8.9c0,2,1.3,3.9,3.3,4.4   c0.1,0,0.6,0.1,0.7,0.2c1.4,0.3,2.8,0.5,4.3,0.8c0.3,0,0.5,0.1,0.8,0.1c0.3,3.6,1.1,7.2,2.3,10.7c-0.6,0.4-1.3,0.9-1.9,1.3   l-1.9,1.3c-0.3,0.2-0.6,0.4-0.8,0.6c-1.7,1.3-2.3,3.5-1.4,5.5c2.6,5.4,6,10.4,10.1,14.7c1.4,1.5,3.7,1.8,5.4,0.8   c0.1-0.1,0.4-0.3,0.5-0.3c1.1-0.8,2.3-1.6,3.4-2.4c0.3-0.2,0.6-0.4,0.8-0.6c2.8,2.3,5.8,4.3,9.1,5.9c-0.1,0.6-0.2,1.2-0.3,1.8   c-0.2,1.1-0.4,2.2-0.6,3.4c0,0.1-0.1,0.3-0.1,0.4c-0.3,2.1,0.9,4.1,2.9,4.8c2.8,1,5.6,1.8,8.5,2.3c2.9,0.5,5.9,0.9,8.8,0.9   c0,0,0.1,0,0.1,0c2.1,0,3.9-1.4,4.3-3.4c0-0.1,0.1-0.3,0.1-0.4c0.2-1.1,0.4-2.2,0.6-3.3c0.1-0.6,0.2-1.2,0.3-1.8   c3.6-0.3,7.1-1,10.6-2.2c0.2,0.3,0.4,0.6,0.6,0.9c0.8,1.1,1.6,2.3,2.3,3.4c0,0,0.2,0.3,0.2,0.3c1.2,1.8,3.6,2.4,5.5,1.5   c5.4-2.5,10.4-5.9,14.8-10c1.5-1.5,1.8-3.8,0.7-5.6c-0.1-0.2-0.3-0.5-0.5-0.8l-1.3-1.9c-0.4-0.7-0.9-1.3-1.3-1.9   c2.4-2.8,4.3-5.8,6-9.1c0.3,0,0.5,0.1,0.8,0.1c1.4,0.3,2.8,0.5,4.2,0.8c0.2,0,0.7,0.1,0.8,0.1c2,0.2,3.9-1,4.6-2.9   c1-2.8,1.8-5.7,2.4-8.7c0.6-3,0.9-6,0.9-9C195.3,95.7,193.6,93.8,191.5,93.4z M185.6,105.2c-0.2,1.2-0.5,2.5-0.9,3.7   c-0.3,0-0.5-0.1-0.8-0.1c-1.3-0.2-2.6-0.5-3.9-0.7c-0.1,0-0.5-0.1-0.5-0.1c-2-0.2-3.9,0.9-4.6,2.8c-1.8,4.6-4.5,8.7-8,12.3   c-1.3,1.3-1.6,3.3-0.9,4.9c0.2,0.4,0.4,0.8,0.7,1.3c0.8,1.2,1.7,2.4,2.5,3.6c-1.9,1.6-4,3-6.2,4.2c-0.1-0.1-0.2-0.3-0.3-0.4   c-0.7-1.1-1.5-2.1-2.2-3.2c-0.3-0.5-0.6-0.8-1-1.2c-1.3-1.2-3.2-1.6-4.8-0.9c-4.5,1.9-9.3,2.9-14.2,3c-1.7,0-3.3,1-4,2.6   c-0.3,0.6-0.4,1.2-0.5,1.8c-0.2,1.4-0.5,2.8-0.7,4.1c-1.2-0.1-2.4-0.3-3.6-0.5c-1.2-0.2-2.4-0.5-3.5-0.8c0.3-1.4,0.5-2.8,0.8-4.1   c0.1-0.7,0.2-1.3,0.2-1.9c-0.1-1.7-1.2-3.2-2.8-3.9c-4.6-1.8-8.7-4.5-12.2-7.9c-1.3-1.2-3.2-1.6-4.8-0.9c-0.5,0.2-0.9,0.4-1.3,0.8   c-1,0.7-2.1,1.5-3.2,2.2c-0.2,0.1-0.3,0.2-0.5,0.3c-1.6-1.9-3-4-4.3-6.2c1.2-0.8,2.4-1.7,3.6-2.5c0.4-0.3,0.8-0.6,1.2-0.9   c1.3-1.3,1.7-3.2,0.9-4.9c-2-4.6-3-9.4-3.1-14.3c0-2-1.4-3.8-3.4-4.3c-0.1,0-0.4-0.1-0.5-0.1c-1.3-0.2-2.6-0.5-3.9-0.7   c-0.3-0.1-0.5-0.1-0.8-0.2c0.1-1.3,0.3-2.5,0.5-3.8c0.2-1.3,0.5-2.5,0.9-3.8c1.3,0.2,2.7,0.5,4,0.8c0.8,0.2,1.4,0.2,2.1,0.2   c1.7-0.1,3.2-1.2,3.8-2.8c1.8-4.5,4.5-8.6,7.9-12.1c1.2-1.3,1.6-3.1,0.9-4.8c-0.3-0.7-0.7-1.3-1.2-2l-0.7-1   c-0.5-0.7-0.9-1.4-1.4-2.1c2-1.6,4.1-3,6.3-4.3c0.8,1.1,1.5,2.3,2.3,3.4c0.3,0.5,0.9,1.3,1.8,1.9c1.2,0.8,2.8,1,4.2,0.4   c4.5-1.9,9.3-2.9,14.1-2.9c1.7,0,3.2-1,3.9-2.5c0.3-0.6,0.5-1.2,0.6-1.9c0.1-0.9,0.3-1.8,0.5-2.8l0.3-1.3c0,0,0-0.1,0-0.1   c1.2,0.1,2.4,0.3,3.6,0.5c1.2,0.2,2.4,0.5,3.6,0.8c0,0,0,0.1,0,0.1l-0.2,1.3c-0.2,0.9-0.3,1.9-0.5,2.8c-0.2,0.7-0.2,1.3-0.2,1.9   c0.1,1.7,1.2,3.2,2.8,3.8c4.5,1.8,8.6,4.4,12.1,7.8c1.1,1.1,2.7,1.5,4.1,1.1c0.8-0.2,1.6-0.6,2.3-1.1c1.1-0.8,2.2-1.6,3.4-2.3   c1.6,2,3.1,4.1,4.3,6.3c-0.6,0.4-1.2,0.8-1.7,1.2l-1.3,0.9c-0.7,0.5-1.3,0.9-1.8,1.5c-1.2,1.3-1.5,3.2-0.8,4.8   c1.9,4.5,2.9,9.2,3,14.1c0,1.7,1,3.2,2.6,4c0.6,0.3,1.3,0.5,2,0.6c1.3,0.2,2.7,0.4,4,0.7C186,102.7,185.8,104,185.6,105.2z"/>
        <path d="M157,80.4c-2.5-2.6-5.6-4.6-9-5.8c-1.2-0.4-2.4-0.8-3.6-1c-1.2-0.2-2.5-0.4-3.7-0.4c-3.6-0.1-7.2,0.7-10.5,2.2   c-2.3,1.1-4.5,2.5-6.3,4.3c-2.6,2.5-4.6,5.6-5.9,9c-0.4,1.2-0.8,2.4-1,3.7c-0.2,1.3-0.4,2.5-0.4,3.8c-0.1,3.6,0.7,7.3,2.3,10.6   c1.1,2.3,2.5,4.4,4.3,6.3c2.5,2.6,5.6,4.6,9,5.8c1.2,0.4,2.4,0.8,3.6,1c1.2,0.2,2.5,0.4,3.7,0.4c0.2,0,0.4,0,0.6,0   c3.4,0,6.8-0.8,9.9-2.2c2.3-1.1,4.4-2.5,6.3-4.3c2.6-2.5,4.7-5.6,5.9-9.1c0.4-1.2,0.8-2.4,1-3.7l0,0c0.2-1.3,0.4-2.6,0.4-3.8   c0.1-3.6-0.7-7.2-2.2-10.5C160.2,84.4,158.8,82.3,157,80.4z M154.4,99.4c-0.1,0.8-0.4,1.6-0.6,2.3c-0.8,2.1-2,4.1-3.7,5.6   c-1.1,1.1-2.5,2-3.9,2.7c-2.1,1-4.2,1.4-6.5,1.4c-0.8,0-1.5-0.1-2.3-0.3c-0.8-0.1-1.5-0.3-2.3-0.6c-2.1-0.8-4.1-2-5.6-3.6   c-1.1-1.2-2-2.5-2.7-3.9c-1-2-1.5-4.3-1.4-6.6c0-0.8,0.1-1.6,0.3-2.4c0.1-0.8,0.4-1.6,0.6-2.3c0.8-2.1,2-4,3.6-5.6   c1.2-1.1,2.5-2,4-2.7c1.9-0.9,4-1.4,6.2-1.4c0.1,0,0.3,0,0.4,0c0.8,0,1.6,0.1,2.3,0.2c0.8,0.1,1.5,0.4,2.3,0.6c2.1,0.8,4,2,5.6,3.6   c1.1,1.2,2,2.5,2.7,3.9c1,2,1.4,4.3,1.4,6.5C154.6,97.8,154.6,98.6,154.4,99.4z"/>
    </g>
</svg>