<svg xmlns="http://www.w3.org/2000/svg" xmlns:xlink="http://www.w3.org/1999/xlink" version="1.1" viewBox="0 0 64 64" xml:space="preserve">
  <g fill="#000000">
    <path d="M56,13.548c-10.554,0-18.68-5.91-23.638-10.868c-0.1-0.1-0.231-0.147-0.362-0.145c-0.131-0.002-0.262,0.045-0.362,0.145   C26.68,7.638,18.554,13.548,8,13.548c-0.276,0-0.5,0.224-0.5,0.5v12.53c0,9.666,4.08,18.151,11.801,24.537L31.673,61.35   c0.093,0.078,0.206,0.115,0.318,0.115c0.003,0,0.006-0.002,0.009-0.002c0.003,0,0.006,0.002,0.009,0.002   c0.112,0,0.226-0.038,0.318-0.115l12.372-10.233C52.42,44.73,56.5,36.244,56.5,26.578v-12.53C56.5,13.772,56.276,13.548,56,13.548z    M52,26.578c0,8.4-3.421,15.489-10.169,21.071L32,55.781l-9.831-8.132C15.421,42.067,12,34.978,12,26.578v-8.774   c8.373-1.029,15.125-5.151,20-9.333c4.875,4.182,11.627,8.303,20,9.333V26.578z"/>
    <path d="M18,31.999c0,7.72,6.28,14,14,14s14-6.28,14-14s-6.28-14-14-14S18,24.279,18,31.999z M41.495,39.309   c-2.196,2.846-5.63,4.69-9.495,4.69s-7.299-1.844-9.495-4.69c0.025-1.623,0.917-3.107,2.347-3.885l2.748-1.492   c0.605-0.329,1.354-0.202,1.819,0.302L32,37.037l2.58-2.804c0.469-0.505,1.218-0.631,1.82-0.302l2.747,1.492   C40.578,36.202,41.47,37.686,41.495,39.309z M36.5,26.999v1c0,2.481-2.019,4.5-4.5,4.5s-4.5-2.019-4.5-4.5v-1   c0-2.481,2.019-4.5,4.5-4.5S36.5,24.518,36.5,26.999z"/>
  </g>
</svg>