<svg version="1.2" xmlns="http://www.w3.org/2000/svg" viewBox="0 0 3000 3000" width="3000" height="3000">
	<title>Gueststatus logo</title>
	<style>
		.s0 { fill: #00a3ff } 
		.s1 { fill: #ffffff } 
	</style>
	<path id="gueststatus" class="s0" aria-label="gueststatus"  d="m532.3 1600.5h-36.5q0 26.5 13.1 47.3 13 20.2 36 31.5 23.4 11.2 53.5 11.2 26.1 0 49.5-12.2 23.4-12.1 38.3-36 14.8-24.3 14.8-59.8v-202.5h-36v202.5q0 26.1-10.3 42.8-9.9 16.2-25.2 23.8-15.3 7.7-31.1 7.7-20.2 0-35.1-7.7-14.8-8.1-22.9-20.7-8.1-13.1-8.1-27.9zm-40.5-117q0 33.3 13.9 57.6 14 24.3 37.4 37.4 23.4 13 51.3 13 26.1 0 45.4-13 19.4-13.1 30.2-37.4 11.2-24.3 11.2-57.6 0-33.8-11.2-57.6-10.8-24.3-30.2-37.4-19.3-13-45.4-13-27.9 0-51.3 13-23.4 13.1-37.4 37.4-13.9 23.9-13.9 57.6zm36.4 0q0-23.8 9.5-40.5 9.9-16.7 26.1-25.2 16.2-8.6 35.1-8.6 11.7 0 23.4 5 11.7 5 21.1 14.4 9.9 9.4 15.8 23.4 5.8 13.5 5.8 31.5 0 23.8-9.9 40.5-9.9 16.7-25.2 25.2-15.3 8.6-31 8.6-18.9 0-35.1-8.6-16.2-8.5-26.1-25.2-9.5-16.7-9.5-40.5zm274.1 22.5v-126h-36v130.5q0 36.9 19.3 59 19.4 22 51.8 22 20.6 0 36-9 15.3-9.5 25.6-27.9v32.4h36v-207h-36v126q0 15.3-6.7 27-6.3 11.7-18.5 18.5-11.7 6.3-27.4 6.3-21.6 0-32.9-13.6-11.2-13.4-11.2-38.2zm280.3 85.5q33.3 0 57.6-13 24.8-13.5 41-39.7l-29.3-18.4q-11.2 18.9-27.4 28.4-16.2 9-37.4 9-21.1 0-36-9-14.8-9-22.5-26.1-7.6-17.2-7.6-41.4 0.4-23.9 8-40.1 8.2-16.7 22.5-25.2 14.9-9 35.6-9 17.6 0 30.6 7.7 13.1 7.6 20.3 21.1 7.6 13.5 7.6 32 0 3.1-1.3 8-1.4 4.5-2.8 6.8l14.5-20.7h-148.5v30.6h176.8q0-0.9 0-4 0.4-3.7 0.4-6.8 0-32.9-11.7-56.7-11.7-23.8-33.7-36.5-21.6-13-52.2-13-30.6 0-54 13.5-23 13.5-36 37.8-12.6 24.3-12.6 56.7 0 32 12.1 56.3 12.6 24.2 34.7 38.2 22.5 13.5 51.3 13.5zm160.2-68l-28.3 17.6q5.8 12.2 17 23.9 11.8 11.7 28.4 19.3 16.6 7.2 37.4 7.2 31.9 0 51.2-18 19.8-18 19.8-45 0-18.5-9-30.2-8.5-11.6-23.3-19.8-14.9-8.5-32.9-15.7-10.8-4.5-20.7-9.5-9.9-4.9-16.2-11.2-6.3-6.3-6.3-14.4 0-10.4 8.1-15.3 8.1-4.9 19.3-4.9 16.2 0 28.9 7.6 13 7.7 21.6 19.4l28.7-18.5q-6.2-11.7-17.5-20.7-11.2-9-26.1-14.4-14.4-5.4-31.1-5.4-16.6 0-32.3 5.8-15.3 5.9-25.2 18-9.5 12.2-9.5 30.7 0 18 9 30.1 9.5 11.7 23 19.4 13.9 7.2 27.4 12.5 12.1 4.5 23 10 10.8 4.9 17.5 12.5 7.2 7.3 7.2 18 0 12.2-9 19.4-8.6 6.8-23.9 6.8-12.5 0-23.3-4.5-10.4-5-18.5-13.1-8.1-8.1-14.4-17.6zm244.8-143.5h-103.5v33.8h103.5zm-33.8-72h-36v278.9l36 0.1zm78.4 215.5l-28.4 17.5q5.9 12.2 17.1 23.9 11.7 11.7 28.3 19.3 16.7 7.3 37.4 7.3 31.9 0 51.3-18 19.8-18 19.8-45 0-18.5-9-30.2-8.5-11.7-23.4-19.8-14.8-8.5-32.8-15.8-10.8-4.5-20.8-9.4-9.9-4.9-16.2-11.3-6.3-6.3-6.3-14.3 0-10.4 8.1-15.3 8.2-5 19.4-5 16.2 0 28.8 7.6 13 7.7 21.6 19.4l28.8-18.4q-6.3-11.8-17.6-20.8-11.2-9-26.1-14.3-14.4-5.4-31-5.4-16.7 0-32.4 5.8-15.3 5.9-25.2 18-9.4 12.2-9.4 30.6 0 18 9 30.1 9.4 11.7 22.9 19.4 13.9 7.2 27.4 12.6 12.2 4.5 23 9.9 10.8 5 17.5 12.6 7.2 7.2 7.2 18 0 12.2-9 19.4-8.5 6.7-23.8 6.7-12.6 0-23.4-4.5-10.3-4.9-18.5-13.1-8-8-14.3-17.5zm244.8-143.5h-103.5v33.7h103.5zm-33.8-72h-36v279h36zm86 215.1q0-11.3 5.3-19.3 5.5-8.1 16.2-12.6 11.3-4.5 28.8-4.5 19 0 35.6 4.9 16.6 4.5 32.4 15.3v-21.1q-3.1-4.1-12.1-10.4-9-6.7-24.4-11.7-14.8-5.4-37.3-5.4-38.2 0-59.8 18.5-21.2 18-21.2 48.1 0 21.1 9.9 36 9.9 14.9 26.1 22.9 16.7 7.7 35.5 7.7 17.2 0 34.3-6.3 17.5-6.3 29.2-19.4 12.2-13 12.2-32.8l-7.2-27q0 16.2-8.2 28.8-7.6 12.2-21.1 18.9-13 6.8-29.7 6.8-13 0-23.4-4.1-9.9-4.5-15.8-13.1-5.3-8.5-5.3-20.2zm-23-121.9l17.5 26.5q5-3.6 13.5-8.5 8.6-5 20.8-8.6 12.5-3.6 27.9-3.6 9.4 0 18 1.8 8.5 1.8 14.8 5.9 6.8 4 10.3 11.2 3.7 6.8 3.7 17.6v143.5h36v-148.5q0-20.2-10.4-34.2-9.9-14-28.3-21.1-18-7.7-42.3-7.7-28.8 0-49.5 8.6-20.3 8.5-32 17.1zm295.2-21.2h-103.5v33.8h103.5zm-33.7-72h-36v279h36zm105.7 198v-126h-36v130.5q0 36.9 19.3 58.9 19.4 22.1 51.8 22.1 20.7 0 36-9 15.3-9.5 25.7-28v32.5h36v-207h-36v126q0 15.3-6.8 27-6.3 11.7-18.5 18.4-11.7 6.3-27.4 6.3-21.6 0-32.8-13.5-11.3-13.5-11.3-38.2zm208.8 17.5l-28.3 17.5q5.8 12.2 17 23.9 11.8 11.7 28.4 19.4 16.6 7.2 37.4 7.2 31.9 0 51.2-18 19.8-18 19.8-45 0-18.5-9-30.2-8.5-11.7-23.3-19.8-14.9-8.5-32.9-15.7-10.8-4.5-20.7-9.5-9.9-4.9-16.2-11.3-6.3-6.2-6.3-14.3 0-10.4 8.1-15.3 8.1-5 19.3-5 16.2 0 28.9 7.6 13 7.7 21.6 19.4l28.7-18.4q-6.2-11.7-17.5-20.7-11.2-9-26.1-14.4-14.4-5.4-31.1-5.4-16.6 0-32.3 5.8-15.3 5.9-25.2 18-9.5 12.2-9.5 30.6 0 18 9 30.1 9.5 11.8 23 19.4 13.9 7.2 27.4 12.6 12.1 4.5 23 9.9 10.8 5 17.5 12.6 7.2 7.2 7.2 18 0 12.2-9 19.4-8.6 6.7-23.9 6.7-12.5 0-23.3-4.5-10.4-4.9-18.5-13.1-8.1-8-14.4-17.5z"/>
	<path id="GS" class="s1" aria-label="GS"  d="m1035.5 1492.5v120h349.5q-13.5 61.5-43.5 115.5-28.5 54-73.5 96-45 42-108 66-61.5 22.5-139.5 22.5-111 0-201-52.5-90-52.5-144-145.5-52.5-93-52.5-214.5 0-123 52.5-214.5 54-93 144-145.5 90-52.5 201-52.5 120 0 208.5 48 88.5 46.5 138 130.5l90-82.5q-45-73.5-111-123-64.5-49.5-147-75-81-25.5-178.5-25.5-114 0-211.5 40.5-97.5 39-169.5 112.5-72 72-112.5 171-39 99-39 216 0 117 39 216 40.5 99 112.5 172.5 72 72 169.5 112.5 97.5 39 211.5 39 120 0 213-43.5 94.5-45 159-121.5 64.5-76.5 97.5-174 33-99 33-208.5zm714 214.5l-102 69q34.5 69 88.5 130.5 55.5 60 127.5 97.5 73.5 36 159 36 63 0 120-21 58.5-21 103.5-60 46.5-39 72-94.5 27-55.5 27-124.5 0-72-25.5-123-25.5-52.5-66-88.5-39-37.5-85.5-61.5-46.5-24-88.5-39-91.5-31.5-145.5-63-52.5-33-75-69-22.5-37.5-22.5-81 0-51 39-91.5 39-42 124.5-42 61.5 0 103.5 24 43.5 24 73.5 61.5 30 37.5 49.5 76.5l109.5-63q-25.5-55.5-70.5-105-45-51-109.5-82.5-63-33-148.5-33-88.5 0-157.5 36-69 34.5-108 96-39 61.5-39 139.5 0 72 27 121.5 28.5 49.5 72 84 43.5 33 91.5 55.5 48 21 87 34.5 60 21 112.5 48 54 25.5 87 67.5 33 42 33 112.5 0 72-51 118.5-51 46.5-135 46.5-63 0-112.5-27-49.5-27-90-75-39-48-75-111z"/>
</svg>