<svg xmlns="http://www.w3.org/2000/svg" version="1.1" viewBox="-5.0 -10.0 110.0 100.0" fill="#000000">
 <path d="m54.5 50.5v13.578c0 7.1719 3.8984 13.789 10.172 17.281l7.3281 4.0703 7.3281-4.0703c6.2695-3.4805 10.172-10.102 10.172-17.281v-13.578c-6.2617-0.10156-12.441-2.1797-17.5-5.8711-5.0586 3.6914-11.238 5.7617-17.5 5.8711zm26.559 8.4414c0.58984 0.58984 0.58984 1.5391 0 2.1211l-10 10c-0.28906 0.28906-0.67969 0.44141-1.0586 0.44141s-0.76953-0.14844-1.0586-0.44141l-6-6c-0.58984-0.58984-0.58984-1.5391 0-2.1211 0.58984-0.58984 1.5391-0.58984 2.1211 0l4.9375 4.9375 8.9414-8.9414c0.58984-0.58594 1.5273-0.58594 2.1172 0.003906zm10.441-41.953v23.012c0 0.82812-0.67188 1.5-1.5 1.5s-1.5-0.67188-1.5-1.5v-23.012c0-0.82031-0.67188-1.4883-1.4883-1.4883h-74.023c-0.82031 0-1.4883 0.67188-1.4883 1.4883v50.012c0 0.82031 0.67188 1.4883 1.4883 1.4883h31.012c0.82812 0 1.5 0.67188 1.5 1.5s-0.67188 1.5-1.5 1.5h-31.012c-2.4805 0-4.4883-2.0195-4.4883-4.4883v-50.012c0-2.4805 2.0195-4.4883 4.4883-4.4883h74.012c2.4805 0 4.5 2.0195 4.5 4.4883zm-57.512 23.512h-11.977c-1.3906 0-2.5117-1.1289-2.5117-2.5117v-11.977c0-1.3906 1.1289-2.5117 2.5117-2.5117h11.98c1.3906 0 2.5117 1.1289 2.5117 2.5117v11.98c-0.003906 1.3789-1.1328 2.5078-2.5156 2.5078zm-5.9883 12c0.82812 0 1.5 0.67188 1.5 1.5s-0.67188 1.5-1.5 1.5h-8c-0.82812 0-1.5-0.67188-1.5-1.5s0.67188-1.5 1.5-1.5zm6.5 1.5c0-0.82812 0.67188-1.5 1.5-1.5h8c0.82812 0 1.5 0.67188 1.5 1.5s-0.67188 1.5-1.5 1.5h-8c-0.82812 0-1.5-0.67188-1.5-1.5zm47-28c0 0.82812-0.67188 1.5-1.5 1.5h-24c-0.82812 0-1.5-0.67188-1.5-1.5s0.67188-1.5 1.5-1.5h24c0.82812 0 1.5 0.67188 1.5 1.5zm0 10c0 0.82812-0.67188 1.5-1.5 1.5h-14c-0.82812 0-1.5-0.67188-1.5-1.5s0.67188-1.5 1.5-1.5h14c0.82812 0 1.5 0.67188 1.5 1.5z"/>
</svg>