<svg xmlns="http://www.w3.org/2000/svg" viewBox="0 0 32 32" x="0px" y="0px" fill="#00a3ff">
  <title>connect</title>
  <g>
    <path d="M10.17,17.64,8.93,18.87a1,1,0,0,1-1.41,0,1,1,0,0,1,0-1.34,11.88,11.88,0,0,1-1.21-1.12,1,1,0,1,1,1.46-1.36,13.07,13.07,0,0,0,1.14,1.06L16.1,8.87C12.36,4.3,8.9,6.2,8.75,6.29l-.07,0a.7.7,0,0,1-.19.06l-.18,0H8.25a.5.5,0,0,1-.13,0,.48.48,0,0,1-.18,0l-.17-.08a1,1,0,0,1-.17-.12l-.06,0L5.4,4A1,1,0,0,1,6.81,2.57L8.48,4.24C10,3.68,13.82,3,17.54,7.47A1,1,0,0,1,18.83,9l-.67.67,0,0ZM6.28,12.93a4.81,4.81,0,0,1,0-4.18s0,0,0-.05a1,1,0,0,0,.08-.24.59.59,0,0,0,0-.14.74.74,0,0,0,0-.21.86.86,0,0,0,0-.17,1.3,1.3,0,0,0-.08-.17.94.94,0,0,0-.12-.18l0,0L4,5.4A1,1,0,0,0,2.57,6.81L4.22,8.47a7,7,0,0,0,.23,5.27,1,1,0,0,0,.92.6,1,1,0,0,0,.4-.09A1,1,0,0,0,6.28,12.93ZM29.43,25.19l-1.67-1.67c.59-1.66,1.3-5.83-4.13-9.76l-.08,0a.93.93,0,0,0-.2-.1.9.9,0,0,0-.16,0l-.19,0-.22,0-.12,0a.85.85,0,0,0-.32.21l-1.47,1.46L18.12,12.5a1,1,0,0,0-1.44,1.39l2.78,2.85-2.83,2.83-2.76-2.83a1,1,0,1,0-1.43,1.4L15.21,21l-1.36,1.36a1.84,1.84,0,0,0-.17.25s0,0,0,.05a1.38,1.38,0,0,0-.08.27s0,.05,0,.07a.83.83,0,0,0,0,.27.28.28,0,0,0,0,.09,2.4,2.4,0,0,0,.11.23s0,0,0,.07c2.65,3.65,5.4,4.53,7.43,4.53a7,7,0,0,0,2.33-.4l1.67,1.66a1,1,0,0,0,1.41,0,1,1,0,0,0,0-1.41l-2.14-2.15-.07,0-.13-.09a.88.88,0,0,0-.22-.1l-.1,0a.86.86,0,0,0-.28,0l-.1,0a.8.8,0,0,0-.26.09h-.05c-.15.09-3.61,2-7.36-2.58l1.31-1.31a1.19,1.19,0,0,0,.15-.09s.07-.11.11-.17l4-4a.65.65,0,0,0,.15-.1,1.53,1.53,0,0,0,.11-.16l1.43-1.43c4.56,3.73,2.68,7.19,2.58,7.35s0,.05,0,.07a1.15,1.15,0,0,0-.06.17.78.78,0,0,0,0,.21.76.76,0,0,0,0,.15.86.86,0,0,0,0,.23.61.61,0,0,0,.05.12,1.07,1.07,0,0,0,.15.22s0,0,0,0L28,26.6a1,1,0,0,0,.7.29,1,1,0,0,0,.71-.29A1,1,0,0,0,29.43,25.19Z"/>
  </g>
</svg>